<svg width="16" height="16" viewBox="0 0 16 16" fill="none" xmlns="http://www.w3.org/2000/svg"><rect width="16" height="16" fill="black" fill-opacity="0"></rect><mask id="path-1-inside-1" fill="white"><path fill-rule="evenodd" clip-rule="evenodd" d="M6.99998 6.99967V1.33301H8.99998V6.99967H14.6666V8.99967H8.99998V14.6663H6.99998V8.99967H1.33331V6.99967H6.99998Z"></path></mask><path d="M6.99998 1.33301V-1.66699H3.99998V1.33301H6.99998ZM6.99998 6.99967V9.99967H9.99998V6.99967H6.99998ZM8.99998 1.33301H12V-1.66699H8.99998V1.33301ZM8.99998 6.99967H5.99998V9.99967H8.99998V6.99967ZM14.6666 6.99967H17.6666V3.99967H14.6666V6.99967ZM14.6666 8.99967V11.9997H17.6666V8.99967H14.6666ZM8.99998 8.99967V5.99967H5.99998V8.99967H8.99998ZM8.99998 14.6663V17.6663H12V14.6663H8.99998ZM6.99998 14.6663H3.99998V17.6663H6.99998V14.6663ZM6.99998 8.99967H9.99998V5.99967H6.99998V8.99967ZM1.33331 8.99967H-1.66669V11.9997H1.33331V8.99967ZM1.33331 6.99967V3.99967H-1.66669V6.99967H1.33331ZM3.99998 1.33301V6.99967H9.99998V1.33301H3.99998ZM8.99998 -1.66699H6.99998V4.33301H8.99998V-1.66699ZM12 6.99967V1.33301H5.99998V6.99967H12ZM14.6666 3.99967H8.99998V9.99967H14.6666V3.99967ZM17.6666 8.99967V6.99967H11.6666V8.99967H17.6666ZM8.99998 11.9997H14.6666V5.99967H8.99998V11.9997ZM12 14.6663V8.99967H5.99998V14.6663H12ZM6.99998 17.6663H8.99998V11.6663H6.99998V17.6663ZM3.99998 8.99967V14.6663H9.99998V8.99967H3.99998ZM1.33331 11.9997H6.99998V5.99967H1.33331V11.9997ZM-1.66669 6.99967V8.99967H4.33331V6.99967H-1.66669ZM6.99998 3.99967H1.33331V9.99967H6.99998V3.99967Z" fill="black" mask="url(#path-1-inside-1)"></path></svg>